# xmcd
#
# Track frame offsets: 
#        150
#        20750
#        36973
#        56488
#        72705
#        92338
#        107503
#        123385
#        141895
#        164170
#        181185
#        200428
#        216998
#        244878
#
# Disc length: 3462 seconds
#
# Revision: 0
# Processed by: cddbd v1.5.1PL0 Copyright (c) Steve Scherf et al.
# Submitted via: ExactAudioCopy v0.95a5
#
DISCID=d20d840e
DTITLE=James Cotton - Deep in the Blues
DYEAR=1900
DGENRE=Blues
TTITLE0=Down at Your Buryin'
TTITLE1=All Walks of Life
TTITLE2=You Got My Nose Open
TTITLE3=Dealin' With the Devil
TTITLE4=Strange Things Happen
TTITLE5=Country Boy
TTITLE6=Vineyard Blues
TTITLE7=Worried Life Blues
TTITLE8=Two Trains Runnin'
TTITLE9=Ozark Mountain Railroad
TTITLE10=Sad Letter
TTITLE11=Play With Your Poodle
TTITLE12=Blues in My Sleep
TTITLE13=Everybody's Fishin'
EXTD=
EXTT0=
EXTT1=
EXTT2=
EXTT3=
EXTT4=
EXTT5=
EXTT6=
EXTT7=
EXTT8=
EXTT9=
EXTT10=
EXTT11=
EXTT12=
EXTT13=
PLAYORDER=
